# xmcd CD database file
#
# Track frame offsets:
#	150
#	10287
#	34740
#	79882
#
# Disc length: 2760 seconds
#
# Revision: 1
# Processed by: cddbd v1.5.1PL0 Copyright (c) Steve Scherf et al.
# Submitted via: CDex 1.50beta10
#
DISCID=260ac604
DTITLE=Glenn Spearman - Blues For Falasha 
DYEAR=1999
DGENRE=Jazz
TTITLE0=The Old Book 
TTITLE1=Rituals 
TTITLE2=Cold Water And Dirt 
TTITLE3=Seed Sounds 
EXTD=YEAR: 1999
EXTT0=
EXTT1=
EXTT2=
EXTT3=
PLAYORDER=
